<?xml version="1.0" encoding="utf-8"?>
<!-- Generator: Adobe Illustrator 19.0.0, SVG Export Plug-In . SVG Version: 6.00 Build 0)  -->
<svg version="1.1" id="Layer_1" xmlns="http://www.w3.org/2000/svg" xmlns:xlink="http://www.w3.org/1999/xlink" x="0px" y="0px"
	 viewBox="0 0 500 500" style="enable-background:new 0 0 500 500;" xml:space="preserve">
<style type="text/css">
	.st0{fill:#96692E;}
	.st1{fill:#D4A44C;}
	.st2{fill:#502D20;}
	.st3{fill:#FFFFFF;}
	.st4{fill:#00824A;}
	.st5{fill:#BA2F33;}
</style>
<g id="XMLID_1_">
	<polygon id="XMLID_3_" class="st0" points="73.2,224.3 77.4,224.7 76.9,231.5 96.5,233.1 96.1,237.8 76.5,236.3 76,243.1 
		71.7,242.7 	"/>
	<path id="XMLID_6_" class="st0" d="M90.2,214.5l1.3-5.7l-9.8,0.7L90.2,214.5L90.2,214.5z M75.8,210.9l1.2-5.3l25.1-2.6l-1.1,5
		l-5.1,0.4l-1.9,8.2l4.5,2.6l-1.1,4.9L75.8,210.9L75.8,210.9z"/>
	
		<rect id="XMLID_7_" x="90.6" y="181.8" transform="matrix(0.3277 -0.9448 0.9448 0.3277 -120.5286 218.0771)" class="st0" width="4.7" height="23.9"/>
	<path id="XMLID_10_" class="st0" d="M94.6,171.7c-0.7,0.3-1.3,1-1.8,2l-1.8,3.9l6.4,3l1.8-3.9c0.5-1,0.6-1.9,0.3-2.7
		c-0.3-0.8-1-1.4-2.1-2C96.2,171.4,95.3,171.3,94.6,171.7 M103.9,172c0.5,1.7,0.2,3.7-0.8,5.9l-2,4.3l7.8,3.6l-2,4.3L85.2,180
		l4.1-8.9c1-2,2.3-3.4,4-4.1c1.7-0.7,3.7-0.5,6,0.6C101.9,168.9,103.4,170.3,103.9,172"/>
	<polygon id="XMLID_11_" class="st0" points="109.2,145.8 102.7,155.7 106.9,158.5 112.9,149.4 116.4,151.7 110.4,160.8 
		115.6,164.1 122.3,153.8 125.9,156.1 116.6,170.4 96.6,157.3 105.6,143.5 	"/>
	
		<rect id="XMLID_12_" x="118.8" y="131.3" transform="matrix(0.6314 -0.7754 0.7754 0.6314 -66.4695 146.7333)" class="st0" width="4.7" height="23.9"/>
	<path id="XMLID_13_" class="st0" d="M138,109.6l5.2-4.4l15.5,18.2l-3.3,2.8l-10.5-12.3c-0.3-0.4-0.7-0.9-1.3-1.5
		c-0.5-0.6-1-1.1-1.2-1.5l9.7,18.1l-3.5,3l-16.3-12.5c0.3,0.3,0.7,0.8,1.3,1.5c0.5,0.6,1,1.1,1.3,1.5l10.5,12.3l-3.3,2.9l-15.5-18.2
		l5.3-4.5l15.4,11.6L138,109.6L138,109.6z"/>
	<polygon id="XMLID_14_" class="st0" points="167.2,95 157.1,101.1 159.7,105.5 169,99.9 171.1,103.4 161.9,109 165.1,114.3 
		175.6,107.9 177.9,111.5 163.3,120.4 150.9,99.9 165,91.4 167.2,95 	"/>
	<path id="XMLID_17_" class="st0" d="M178.8,89.3l6,14.4l4.1-1.7c2.1-0.9,3.1-2.6,3-5c0-1.4-0.4-2.9-1.1-4.5c-0.9-2.3-2-3.8-3.2-4.8
		c-1.2-0.9-2.8-1-4.8-0.1L178.8,89.3L178.8,89.3z M185.5,82.6c1.7-0.1,3.3,0.3,4.8,1.3c1.2,0.8,2.2,1.8,3,2.9
		c0.8,1.2,1.4,2.3,1.9,3.5c1.2,2.9,1.7,5.7,1.4,8.2c-0.4,3.4-2.2,5.7-5.3,7.1l-9.1,3.8L173,87.2l9.1-3.8
		C183.3,82.9,184.5,82.6,185.5,82.6"/>
	
		<rect id="XMLID_18_" x="200.6" y="76.8" transform="matrix(0.9594 -0.2822 0.2822 0.9594 -16.7908 60.8878)" class="st0" width="4.7" height="24"/>
	<path id="XMLID_19_" class="st0" d="M212.2,76.5c1.5-2.3,3.6-3.6,6.4-4.1c3.7-0.7,6.7,0.1,8.9,2.4c1.2,1.3,2,2.7,2.3,4.1l-4.7,0.8
		c-0.5-1.1-1-1.9-1.6-2.4c-1-0.9-2.3-1.2-4-0.9c-1.7,0.3-2.9,1.3-3.6,2.9c-0.7,1.6-0.8,3.7-0.4,6.4s1.3,4.5,2.6,5.7
		c1.3,1.1,2.7,1.6,4.2,1.3c1.6-0.3,2.7-1.1,3.4-2.4c0.4-0.7,0.6-1.7,0.7-2.9l4.7-0.8c0.1,2.6-0.6,4.9-2,6.8
		c-1.4,1.9-3.3,3.1-5.9,3.5c-3.2,0.6-5.9-0.1-8.1-1.9c-2.2-1.9-3.7-4.7-4.3-8.5C210.1,82.4,210.5,79.1,212.2,76.5"/>
	<path id="XMLID_22_" class="st0" d="M243.3,85l5.8-0.1l-3.1-9.4L243.3,85L243.3,85z M243.3,70.1l5.4-0.1l8.6,23.7l-5.2,0.1
		l-1.6-4.9l-8.4,0.2l-1.4,4.9l-5,0.1L243.3,70.1L243.3,70.1z"/>
	<polygon id="XMLID_23_" class="st0" points="263.9,70.4 268.7,71 266.4,90.5 277.6,91.8 277.1,96.1 261.1,94.2 263.9,70.4 	"/>
	<path id="XMLID_24_" class="st0" d="M298.4,76.4L303,78l-4.7,13.9c-0.5,1.6-0.7,2.8-0.6,3.6c0.1,1.5,1.1,2.5,2.9,3.1
		c1.8,0.6,3.2,0.4,4.2-0.7c0.6-0.6,1.1-1.7,1.7-3.2l4.7-13.9l4.6,1.5L311,96.2c-0.8,2.4-1.8,4.2-3,5.3c-2.2,2-5.1,2.4-8.8,1.1
		c-3.7-1.3-5.9-3.3-6.4-6.3c-0.3-1.6,0-3.6,0.8-6L298.4,76.4L298.4,76.4z"/>
	<polygon id="XMLID_25_" class="st0" points="324.2,85.9 328.6,88.2 328.9,107.2 336.6,92.4 340.6,94.5 329.5,115.7 325.3,113.5 
		324.9,94.1 317.1,109.2 313.1,107.1 324.2,85.9 	"/>
	
		<rect id="XMLID_26_" x="339.9" y="98" transform="matrix(0.8311 0.5561 -0.5561 0.8311 118.9377 -171.7599)" class="st0" width="4.7" height="23.9"/>
	<polygon id="XMLID_27_" class="st0" points="367.6,114.3 371.4,117.4 350.2,130.9 346.7,128 356.1,104.7 360,107.9 352.2,125.1 	
		"/>
	<polygon id="XMLID_28_" class="st0" points="384.6,137.7 376.6,128.9 372.9,132.3 380.1,140.4 377.1,143.1 369.8,135.1 
		365.2,139.3 373.5,148.4 370.3,151.3 358.9,138.7 376.6,122.6 387.7,134.8 384.6,137.7 	"/>
	<path id="XMLID_31_" class="st0" d="M392.5,148.2l-5.4,3.6l2.8,4.3c0.6,0.8,1.1,1.4,1.6,1.7c0.9,0.5,1.9,0.4,3-0.4
		c1.2-0.8,1.8-1.7,1.7-2.7c0-0.6-0.3-1.3-0.9-2.1L392.5,148.2L392.5,148.2z M400.9,154.4c0.1,0.9,0.1,1.8-0.2,2.7
		c-0.2,0.7-0.6,1.4-1,2.1c-0.5,0.6-1.1,1.2-1.9,1.7c-0.9,0.6-2,1-3.2,1.2c-1.2,0.2-2.4-0.2-3.4-1c0.2,1.1,0.1,2.1-0.3,2.9
		c-0.4,0.8-1.4,1.7-2.7,2.6l-1.3,0.9c-0.9,0.6-1.5,1.1-1.8,1.3c-0.4,0.4-0.7,0.9-0.6,1.5l-0.5,0.3l-2.9-4.4c0.4-0.4,0.7-0.7,0.9-1
		c0.5-0.5,1-0.9,1.6-1.3l1.8-1.3c1.3-0.9,2-1.6,2.1-2.3c0.2-0.7-0.1-1.6-0.9-2.7l-2.6-3.9l-7.8,5.2l-2.6-3.9l19.9-13.3l6,9.1
		C400.2,152.4,400.7,153.5,400.9,154.4"/>
	<path id="XMLID_32_" class="st0" d="M394.3,175.3c-0.9,0.6-1.5,1.2-1.9,1.8c-0.6,1.1-0.4,2.6,0.4,4.3c0.5,1,1,1.8,1.5,2.4
		c1,1,2.2,1.2,3.4,0.7c0.7-0.3,1.1-0.9,1.2-1.7c0.1-0.8,0-1.9-0.3-3.3l-0.5-2.5c-0.5-2.4-0.7-4.2-0.5-5.3c0.3-1.9,1.6-3.3,3.7-4.3
		c1.9-0.9,3.9-1,5.8-0.2c1.9,0.8,3.5,2.4,4.7,5.1c1,2.2,1.3,4.4,0.8,6.5c-0.5,2.1-1.9,3.8-4.1,4.9l-1.9-4.1c1.3-0.7,1.9-1.7,2-3
		c0-0.9-0.2-1.8-0.7-2.8c-0.5-1.1-1.2-1.9-2-2.4c-0.8-0.5-1.6-0.5-2.4-0.1c-0.8,0.4-1.2,1-1.3,1.8c-0.1,0.5,0.1,1.6,0.4,3.2l0.8,4
		c0.4,1.8,0.4,3.2,0.1,4.3c-0.4,1.7-1.6,3-3.6,3.9c-2,0.9-4,1-6,0.1c-2-0.8-3.6-2.6-4.9-5.2c-1.3-2.7-1.6-5.1-1.1-7.3
		c0.6-2.2,2-3.8,4.2-4.8L394.3,175.3L394.3,175.3z"/>
	
		<rect id="XMLID_33_" x="404.6" y="181.4" transform="matrix(0.3291 0.9443 -0.9443 0.3291 455.6256 -254.5256)" class="st0" width="4.7" height="24"/>
	<polygon id="XMLID_34_" class="st0" points="425.3,215.2 421.2,216.2 419.6,209.5 400.5,214.2 399.3,209.5 418.5,204.9 
		416.9,198.2 421,197.2 425.3,215.2 	"/>
	<polygon id="XMLID_35_" class="st0" points="427.7,235.1 428.3,240.4 412.6,234.3 403.7,235.2 403.2,230.5 412.2,229.6 
		426.2,220.3 426.8,225.9 416.9,231.6 427.7,235.1 	"/>
	<path id="XMLID_36_" class="st1" d="M109.7,304.2c3.9-8.2,3.7-19.3,0.4-25.3c-2-3.5-0.8-9.2-0.8-9.1
		C109.4,268.7,91.6,285,109.7,304.2"/>
	<path id="XMLID_37_" class="st1" d="M119.2,285.4c0.1,0,1.6-2.8-0.2,10.3c-0.3,0.5,10.4,18.4-1.2,27.4c0,0.4-10.7-14.1-1.6-29.6
		L119.2,285.4z"/>
	<path id="XMLID_38_" class="st1" d="M95.8,305.4c-6.2-20.9-4.7-16.4-3.3-15.9c-0.2,0.1,5.1,12.7,6.8,13.5
		c1.7,1.1,12.9,6.7,14.9,21.4C114.5,324.1,104.4,329.2,95.8,305.4"/>
	<path id="XMLID_39_" class="st1" d="M129.8,311.2c0.1,0,1.9,0.8,0.3,10.2c-0.5,0.3,10,19.5-3.7,24c-0.2,0.4-9.9-15.8,0.9-26.8
		L129.8,311.2L129.8,311.2z"/>
	<path id="XMLID_40_" class="st1" d="M103.3,332.5c-10.2-19.2-6.5-14.2-5.2-14.1c-0.1,0.1,6.2,10.4,8,10.8
		c1.9,0.6,13.7,3.4,18.7,17.5C125.1,346.3,116.6,353.9,103.3,332.5"/>
	<path id="XMLID_41_" class="st1" d="M138.7,334.1c0.1,0,2,0.4,2.2,9.8c-0.5,0.4,13.5,16.9,1.3,24.2c-0.1,0.4-13.1-13.4-4.6-26.3
		L138.7,334.1z"/>
	<path id="XMLID_42_" class="st1" d="M116.2,360.5c-13.9-17.1-9.3-12.9-8-13c-0.1,0.1,8.2,9.1,10.1,9.2c2,0.2,14,0.8,22,13.4
		C140.5,369.6,133.7,379.1,116.2,360.5"/>
	<path id="XMLID_43_" class="st1" d="M154.5,355.1c0.1,0.1,2.2,0.2,3.1,9.1c-0.5,0.3,15.8,15.2,3,22.7c-0.2,0.5-14.4-12-6.6-24.5
		L154.5,355.1L154.5,355.1z"/>
	<path id="XMLID_44_" class="st1" d="M134.9,385.8c-17.8-13-12.2-10.2-11-10.7c-0.1,0.2,10.2,6.7,11.8,6.2
		c1.9-0.3,13.3-3.4,24.2,7.1C160,388,156.5,399.2,134.9,385.8"/>
	<path id="XMLID_45_" class="st1" d="M171.7,371.5c0.1,0,2.1-0.2,5,8.3c-0.4,0.3,18.8,11.9,7.6,21.7c0,0.4-16.4-8.9-11.5-22.8
		L171.7,371.5z"/>
	<path id="XMLID_46_" class="st1" d="M159,405.7c-20-8.9-14-7.3-13-8c-0.1,0.2,11.4,4.3,12.8,3.6c1.8-0.8,12.3-6.2,25,2
		C183.8,402.8,182.5,414.3,159,405.7"/>
	<path id="XMLID_47_" class="st1" d="M192.1,384.4c0.1,0,2.2-0.7,6.6,7.3c-0.3,0.3,20.9,8.6,11.4,20.1c0,0.2-17.7-5.8-15.4-20.5
		L192.1,384.4z"/>
	<path id="XMLID_48_" class="st1" d="M186.1,420.4c-21-4.9-14.9-4.4-14-5.4c0,0.2,11.8,2,13.1,0.9c1.5-1,10.9-8.4,24.8-2.4
		C209.9,413.1,210.4,424.4,186.1,420.4"/>
	<path id="XMLID_49_" class="st1" d="M215.1,393.5c0.1-0.1,2-0.8,7.9,6.2c-0.2,0.3,22.3,5.7,14.2,18.5c0.1,0.2-18.2-3.5-18.4-18.1
		L215.1,393.5L215.1,393.5z"/>
	<path id="XMLID_50_" class="st1" d="M214.8,430c-21.1-1.4-15.2-1.7-14.5-2.9c0,0,11.7,0.2,12.9-1.3c1.4-1.3,9.5-10.1,24.1-5.9
		C237.1,419.7,239,430.4,214.8,430"/>
	<path id="XMLID_51_" class="st1" d="M236.9,411.7l1.5,1.4l1,0.9l1.1,0.8l1.2,0.8l1.1,0.8l1.2,0.8l1.2,0.7l1.2,0.7l1.3,0.7l1.3,0.7
		l1.3,0.7l1.3,0.7l1.4,0.6l1.3,0.7l1.4,0.6l0.7,0.3l0.2,0.1l0.1,0.1l0.2,0.1l0.1,0.2l0.1,0.1l0.1,0.1l0.1,0.2l0.1,0.1l0.1,0.2
		l0.1,0.2l0,0.2l0,0.2v0.2l0,0.2l0,0.1l0,0l-0.8,0.7l-0.5,0.2l-0.5,0.1l-0.5,0l-0.5-0.1l-0.5-0.2l-0.5-0.3l-0.6-0.3l-0.5-0.3
		l-0.5-0.4l-0.5-0.4l-0.5-0.3l-0.5-0.3l-0.6-0.3l-0.5-0.2l-0.3-0.1l-1.8-0.8l-1.2-0.6l-1.1-0.6l-1.1-0.6l-1.1-0.7l-1.1-0.7l-1.1-0.7
		l-1.1-0.6l-1.1-0.7l-1.1-0.7l-1.1-0.6l-2.6-1.8C233.6,414.5,233.5,410,236.9,411.7"/>
	<path id="XMLID_52_" class="st1" d="M390.3,304.2c-3.9-8.2-3.7-19.3-0.4-25.3c2-3.5,0.8-9.2,0.8-9.1
		C390.6,268.7,408.4,285,390.3,304.2"/>
	<path id="XMLID_53_" class="st1" d="M380.9,285.4c-0.1,0-1.6-2.8,0.2,10.3c0.3,0.5-10.4,18.4,1.2,27.4c0,0.4,10.7-14.1,1.6-29.6
		L380.9,285.4z"/>
	<path id="XMLID_54_" class="st1" d="M404.2,305.4c6.2-20.9,4.7-16.4,3.3-15.9c0.2,0.1-5.1,12.7-6.8,13.5
		c-1.7,1.1-12.9,6.7-14.9,21.4C385.5,324.1,395.6,329.2,404.2,305.4"/>
	<path id="XMLID_55_" class="st1" d="M370.2,311.2c-0.1,0-1.9,0.8-0.3,10.2c0.5,0.3-10,19.5,3.7,24c0.2,0.4,9.9-15.8-0.9-26.8
		L370.2,311.2L370.2,311.2z"/>
	<path id="XMLID_56_" class="st1" d="M396.7,332.5c10.2-19.2,6.5-14.2,5.2-14.1c0.1,0.1-6.2,10.4-8,10.8
		c-1.9,0.6-13.7,3.4-18.7,17.5C374.9,346.3,383.4,353.9,396.7,332.5"/>
	<path id="XMLID_57_" class="st1" d="M361.3,334.1c-0.1,0-2,0.4-2.2,9.8c0.5,0.4-13.5,16.9-1.3,24.2c0.1,0.4,13.1-13.4,4.6-26.3
		L361.3,334.1z"/>
	<path id="XMLID_58_" class="st1" d="M383.8,360.5c13.9-17.1,9.3-12.9,8-13c0.1,0.1-8.2,9.1-10.1,9.2c-2,0.2-14,0.8-22,13.4
		C359.5,369.6,366.3,379.1,383.8,360.5"/>
	<path id="XMLID_59_" class="st1" d="M345.5,355.1c-0.1,0.1-2.2,0.2-3.1,9.1c0.5,0.3-15.8,15.2-3,22.7c0.2,0.5,14.4-12,6.6-24.5
		L345.5,355.1z"/>
	<path id="XMLID_60_" class="st1" d="M365.1,385.8c17.8-13,12.2-10.2,11-10.7c0.1,0.2-10.2,6.7-11.8,6.2c-1.9-0.3-13.3-3.4-24.2,7.1
		C340,388,343.5,399.2,365.1,385.8"/>
	<path id="XMLID_61_" class="st1" d="M328.3,371.5c-0.1,0-2.1-0.2-5,8.3c0.4,0.3-18.8,11.9-7.6,21.7c0.1,0.4,16.4-8.9,11.5-22.8
		L328.3,371.5z"/>
	<path id="XMLID_62_" class="st1" d="M341,405.7c20-8.9,14-7.3,13-8c0.1,0.2-11.4,4.3-12.8,3.6c-1.8-0.8-12.3-6.2-25,2
		C316.2,402.8,317.5,414.3,341,405.7"/>
	<path id="XMLID_63_" class="st1" d="M307.9,384.4c-0.1,0-2.1-0.7-6.6,7.3c0.3,0.3-20.9,8.6-11.4,20.1c0,0.2,17.7-5.8,15.4-20.5
		L307.9,384.4L307.9,384.4z"/>
	<path id="XMLID_64_" class="st1" d="M314,420.4c21-4.9,14.9-4.4,14-5.4c0,0.2-11.8,2-13.1,0.9c-1.5-1-10.9-8.4-24.8-2.4
		C290.1,413.1,289.6,424.4,314,420.4"/>
	<path id="XMLID_65_" class="st1" d="M284.9,393.5c-0.1-0.1-2-0.8-7.9,6.2c0.2,0.3-22.3,5.7-14.2,18.5c-0.1,0.2,18.2-3.5,18.4-18.1
		L284.9,393.5L284.9,393.5z"/>
	<path id="XMLID_66_" class="st1" d="M285.3,430c21.1-1.4,15.2-1.7,14.5-2.9c0,0-11.8,0.2-12.9-1.3c-1.4-1.3-9.5-10.1-24.1-5.9
		C262.9,419.7,261,430.4,285.3,430"/>
	<path id="XMLID_67_" class="st1" d="M263.1,411.7l-1.5,1.4l-1,0.9l-1.1,0.8l-1.2,0.8l-1.1,0.8l-1.2,0.8l-1.2,0.7l-1.2,0.7l-1.3,0.7
		l-1.3,0.7l-1.3,0.7l-1.3,0.7l-1.4,0.6l-1.3,0.7l-1.4,0.6l-0.7,0.3l-0.2,0.1l-0.1,0.1l-0.2,0.1l-0.1,0.2l-0.1,0.1l-0.1,0.1l-0.1,0.2
		l-0.1,0.1l-0.1,0.2l-0.1,0.2l0,0.2l0,0.2l0,0.2l0,0.2l0,0.1l0,0l0.8,0.7l0.5,0.2l0.5,0.1l0.5,0l0.5-0.1l0.5-0.2l0.5-0.3l0.6-0.3
		l0.5-0.3l0.5-0.4l0.5-0.4l0.5-0.3l0.5-0.3l0.6-0.3l0.5-0.2l0.3-0.1l1.8-0.8l1.2-0.6l1.1-0.6l1.1-0.6l1.1-0.7l1.1-0.7l1.1-0.7
		l1.1-0.6l1.1-0.7l1.1-0.7l1.1-0.6l2.6-1.8C266.4,414.5,266.5,410,263.1,411.7"/>
	<path id="XMLID_68_" class="st2" d="M201.1,159.7c21.3-5,40.3-23.7,48.5-31.5c9,8.5,30.6,29.8,54.2,32.5c11.1,1.2,22.7-1.7,33.5-12
		l24.1,25.7c-9.9,14.6-12.1,51.8-3.3,73.6c8.8,21.8,8.7,68.7-36.2,104.4c-34.6,27.5-72.1,42.2-72.1,42.2s-32.4-10.4-72.7-42.2
		c-32.6-25.8-47.4-68-36.2-104.4c6.9-22.4,6.6-59.1-3.3-73.6l24.1-25.7C174.6,160.8,188.3,162.7,201.1,159.7"/>
	<path id="XMLID_69_" class="st0" d="M201.1,159.7l0.6,2.4c11.2-2.6,21.5-8.7,30.1-15.1c8.6-6.4,15.5-13.1,19.6-17l-1.7-1.8
		l-1.7,1.8c2.2,2.1,5.3,5.1,9,8.3c5.6,4.9,12.6,10.6,20.5,15.3c7.9,4.7,16.8,8.5,26.2,9.5c1.7,0.2,3.3,0.3,5,0.3
		c5.1,0,10.3-0.9,15.4-3c5.1-2.1,10.2-5.3,15-9.9l-1.7-1.8l-1.8,1.7l24.1,25.7l1.8-1.7l-2-1.4c-3.1,4.6-5.3,10.9-6.9,18.1
		c-1.5,7.2-2.3,15.3-2.3,23.5c0,12.2,1.8,24.6,5.7,34.4c2.5,6.3,4.4,15.1,4.4,25.1c0,11.4-2.3,24.4-8.5,37.7
		c-6.1,13.2-16.1,26.6-31.4,38.8c-17.1,13.6-35.1,24.1-48.7,31.2c-6.8,3.5-12.5,6.2-16.5,8c-2,0.9-3.6,1.6-4.7,2
		c-0.5,0.2-0.9,0.4-1.2,0.5c-0.1,0.1-0.2,0.1-0.3,0.1l-0.1,0l0.9,2.3l0.7-2.3l0,0c-0.8-0.3-32.5-10.7-71.9-41.8
		c-24.8-19.6-39-48.8-39-77.4c0-8.2,1.2-16.4,3.6-24.3c3.2-10.3,4.8-23.3,4.8-36c0-7.9-0.6-15.6-2-22.4c-1.4-6.9-3.4-12.8-6.4-17.3
		l-2,1.4l1.8,1.7l24.1-25.7l-1.8-1.7l-1.7,1.8c4.9,4.6,9.9,7.9,15.1,9.9c5.1,2.1,10.3,3,15.4,3c3.7,0,7.4-0.5,11-1.3l0.4-0.1
		l0.3-0.2L201.1,159.7l0.6,2.4L201.1,159.7l-1.3-2.1h0L201.1,159.7l-0.6-2.4c-3.3,0.8-6.6,1.2-9.9,1.2c-4.5,0-9.1-0.8-13.6-2.6
		c-4.5-1.8-9.1-4.7-13.5-8.9l-1.8-1.7l-27.2,28.9l1.1,1.6c2.5,3.6,4.4,9.1,5.7,15.5c1.3,6.5,1.9,13.9,1.9,21.5
		c0,12.2-1.6,24.9-4.6,34.5c-2.6,8.4-3.8,17-3.8,25.7c0,30.2,14.9,60.8,40.8,81.3c40.6,32,73.2,42.6,73.4,42.6l0.8,0.3l0.8-0.3
		c0.1-0.1,37.8-14.8,72.8-42.6c15.9-12.6,26.3-26.7,32.7-40.6c6.4-13.9,8.9-27.7,8.9-39.7c0-10.6-1.9-19.9-4.7-26.9l0,0
		c-3.6-8.9-5.3-20.8-5.3-32.6c0-7.9,0.8-15.7,2.2-22.5c1.4-6.8,3.6-12.6,6.1-16.3l1.1-1.6l-27.2-28.9l-1.8,1.7
		c-4.5,4.2-9,7.1-13.5,8.9c-4.5,1.8-9.1,2.6-13.6,2.6c-1.5,0-3-0.1-4.5-0.3c-11.2-1.2-22.2-7-31.5-13.6c-4.6-3.3-8.9-6.8-12.5-10
		c-3.6-3.2-6.6-6.1-8.9-8.2l-1.7-1.6l-1.7,1.6c-4.1,3.9-10.8,10.4-19.1,16.6c-8.3,6.2-18.1,11.9-28.3,14.3l-0.4,0.1l-0.3,0.2
		L201.1,159.7z"/>
	<path id="XMLID_70_" class="st3" d="M227.5,365.7v-1.2h0.6c0.5,0,0.8-0.1,1.1-0.2c0.2-0.1,0.4-0.5,0.4-1.1V355
		c0-0.8-0.1-1.3-0.3-1.4c-0.2-0.2-0.8-0.3-1.9-0.3v-1.2c2-0.1,3.6-0.5,4.7-1.3h1.2v12.3c0,0.5,0.1,0.8,0.3,1.1
		c0.2,0.2,0.5,0.3,1.1,0.3h0.6v1.2L227.5,365.7L227.5,365.7z"/>
	<path id="XMLID_73_" class="st3" d="M242.5,355.9c0,1.3,0.1,2.1,0.4,2.7c0.2,0.5,0.6,0.8,1.2,0.8c0.5,0,0.9-0.2,1.2-0.7
		c0.2-0.5,0.4-1.3,0.4-2.4c0-1.6-0.1-2.7-0.4-3.3c-0.3-0.6-0.7-0.8-1.2-0.8c-0.3,0-0.6,0.1-0.8,0.3c-0.3,0.2-0.4,0.5-0.5,0.9
		C242.5,353.8,242.5,354.6,242.5,355.9 M245.3,360c-0.3,0.2-0.6,0.3-0.9,0.4c-0.3,0.1-0.7,0.1-1.1,0.1c-1.3,0-2.4-0.4-3.3-1.3
		c-0.9-0.8-1.4-2-1.4-3.4c0-1.6,0.5-2.9,1.6-3.8c1.1-0.9,2.3-1.3,3.6-1.3c1.5,0,2.8,0.6,3.8,1.7c1,1.1,1.5,2.7,1.5,4.9
		c0,2.6-0.7,4.7-2,6.2c-1.3,1.6-3,2.4-5.1,2.4c-1,0-1.8-0.2-2.3-0.5c-0.5-0.3-0.8-0.7-0.8-1.2c0-0.3,0.1-0.6,0.4-0.8
		c0.3-0.2,0.6-0.3,0.9-0.3c0.3,0,0.5,0.1,0.8,0.2c0.2,0.1,0.5,0.4,0.7,0.8c0.3,0.4,0.7,0.7,1.2,0.7c0.7,0,1.2-0.3,1.5-1
		C244.9,363,245.2,361.8,245.3,360"/>
	<path id="XMLID_76_" class="st3" d="M254.9,361.1c0,1.3,0.1,2.2,0.4,2.8c0.3,0.6,0.7,0.9,1.3,0.9c0.5,0,0.9-0.2,1.1-0.7
		c0.2-0.4,0.3-1.3,0.3-2.5c0-1.7-0.1-2.7-0.4-3.2c-0.3-0.5-0.7-0.7-1.2-0.7c-0.3,0-0.6,0.1-0.9,0.4c-0.2,0.2-0.4,0.5-0.5,0.9
		C255,359.3,254.9,360.1,254.9,361.1 M255.1,356.9c0.7-0.3,1.3-0.5,2.1-0.5c1.2,0,2.3,0.4,3.2,1.2c0.9,0.8,1.4,1.9,1.4,3.4
		c0,1.6-0.5,2.9-1.6,3.7c-1.1,0.9-2.3,1.3-3.6,1.3c-1.5,0-2.8-0.6-3.8-1.7c-1-1.1-1.6-2.7-1.6-4.7c0-1.5,0.3-3,0.8-4.3
		c0.5-1.4,1.4-2.5,2.6-3.2c1.2-0.8,2.4-1.2,3.8-1.2c0.9,0,1.6,0.2,2.2,0.5c0.6,0.3,0.9,0.7,0.9,1.2c0,0.3-0.1,0.6-0.4,0.9
		c-0.3,0.3-0.6,0.4-0.9,0.4c-0.5,0-1-0.3-1.4-1c-0.3-0.5-0.8-0.7-1.3-0.7c-0.6,0-1.2,0.4-1.6,1.2
		C255.5,354.2,255.3,355.4,255.1,356.9"/>
	<path id="XMLID_79_" class="st3" d="M267.3,358.3c0,2.3,0.1,4,0.3,5c0.2,1,0.7,1.5,1.3,1.5c0.6,0,1-0.4,1.2-1.2
		c0.2-0.8,0.3-2.5,0.3-5.1c0-2.5-0.1-4.2-0.3-5c-0.2-0.8-0.6-1.3-1.3-1.3c-0.6,0-1,0.4-1.2,1.2C267.4,354.1,267.3,355.8,267.3,358.3
		 M263.5,358.3c0-2.4,0.5-4.3,1.5-5.5c1-1.3,2.3-1.9,3.9-1.9c1.5,0,2.8,0.6,3.9,1.9c1,1.3,1.5,3.1,1.5,5.4c0,2.7-0.5,4.7-1.5,5.9
		c-1,1.3-2.3,1.9-3.9,1.9c-1.1,0-2.1-0.3-3-1c-0.9-0.7-1.5-1.5-1.8-2.6C263.6,361.3,263.5,360,263.5,358.3"/>
	<polygon id="XMLID_80_" class="st3" points="237.7,176.1 237.7,196.5 192.5,196.5 192.5,244.5 213.9,244.5 213.9,279.6 187,279.6 
		187,331.5 313,331.5 313,279.6 286.1,279.6 286.1,244.5 307.5,244.5 307.5,196.5 262.3,196.5 262.3,176.1 	"/>
	<polygon id="XMLID_81_" class="st4" points="303.2,200.9 257.9,200.9 257.9,180.5 242.2,180.5 242.2,200.9 196.9,200.9 
		196.9,216.7 242.2,216.7 242.2,249.1 257.9,249.1 257.9,216.7 303.2,216.7 	"/>
	<polygon id="XMLID_82_" class="st5" points="234.1,256.6 234.1,224.2 196.9,224.2 196.9,240.1 218.3,240.1 218.3,272.5 
		230.5,272.5 230.5,284 216.6,284 216.6,299.8 230.5,299.8 230.5,311.3 207.1,311.3 207.1,284 191.4,284 191.4,327.1 246.3,327.1 
		246.3,256.6 234.1,256.6 	"/>
	<polygon id="XMLID_83_" class="st5" points="292.9,284 292.9,311.3 269.5,311.3 269.5,299.8 283.4,299.8 283.4,284 269.5,284 
		269.5,272.5 281.7,272.5 281.7,240.1 303.2,240.1 303.2,224.2 266,224.2 266,256.6 253.8,256.6 253.8,327.1 308.7,327.1 308.7,284 
		292.9,284 	"/>
</g>
</svg>
