<?xml version="1.0" encoding="UTF-8"?>
<!-- Created with Inkscape (http://www.inkscape.org/) -->
<svg width="256.87" height="259.38" version="1.1" viewBox="0 0 256.87 259.38" xmlns="http://www.w3.org/2000/svg">
 <defs>
  <clipPath id="clipPath148">
   <path d="M 0,595.276 H 841.89 V 0 H 0 Z"/>
  </clipPath>
 </defs>
 <g transform="matrix(1.3333 0 0 -1.3333 -407 588.24)">
  <g transform="matrix(.67964 0 0 .67964 97.789 141.34)" stroke-width="1.4714">
   <g clip-path="url(#clipPath148)" stroke-width="1.4714">
    <g transform="translate(409.74 365.5)" stroke-width="1.4714">
     <path d="m0 0h-3e-3v-3e-3c-5.323-1.257-10.855-1.481-16.419-0.127-4.893 1.193-9.765 3.6-14.479 7.589l-15.751-16.778c4.989-9.084 6.506-25.455 5.083-40.291-0.293-3.085-0.711-6.097-1.244-8.954-0.536-2.866-1.198-5.614-1.98-8.166v-0.011l-0.052-0.168c-6.027-19.614-1.956-41.53 9.933-59.502 2.318-3.503 4.931-6.856 7.825-10.01 2.914-3.18 6.091-6.142 9.51-8.845l0.041-0.028 7e-3 -7e-3c27.579-21.762 50.205-30.401 54.797-32.025 4.92 2.021 30.555 13.011 54.503 32.055 24.059 19.135 31.042 42.443 30.69 60.197-0.068 3.449-0.418 6.697-0.973 9.667-0.551 2.937-1.3 5.579-2.177 7.853l-3e-3 -3e-3 -0.187 0.472h3e-3c-5.082 12.661-5.614 31.648-2.562 45.617 0.599 2.746 1.343 5.324 2.223 7.646 0.624 1.647 1.318 3.162 2.072 4.515l-15.722 16.769c-3.929-3.327-7.966-5.548-12.022-6.883v-3e-3c-4.742-1.56-9.505-1.908-14.163-1.387-17.806 1.978-33.887 16.689-41.841 24.244-7.243-6.874-21.225-19.696-37.101-23.433zm-2.054 6.861 3e-3 2e-3c15.608 3.675 29.775 17.158 36.54 23.597l0.832 0.791 1.783 1.694 1.78-1.694 0.778-0.741c7.342-6.997 23.563-22.456 40.838-24.375 4.064-0.454 8.204-0.156 12.314 1.196h0.011c4.142 1.362 8.279 3.797 12.304 7.61l1.887 1.783 1.766-1.884 20.588-21.953-1.153-1.707-0.014-0.019c-0.989-1.464-1.877-3.259-2.654-5.306-0.798-2.114-1.487-4.507-2.054-7.099-2.938-13.467-2.467-31.675 2.37-43.707l0.01-0.019 0.19-0.482v-8e-3c1.013-2.625 1.872-5.643 2.494-8.958 0.615-3.286 1.002-6.895 1.078-10.75 0.388-19.463-7.204-44.966-33.359-65.77-27.836-22.133-57.914-33.899-57.999-33.933l-0.859-0.339-0.883 0.289c-0.075 0.025-26.194 8.397-58.607 33.983l-0.042 0.032-5e-3 5e-3v3e-3c-3.745 2.959-7.185 6.164-10.301 9.565-3.151 3.435-5.998 7.084-8.52 10.896-13.002 19.655-17.432 43.698-10.795 65.285l0.052 0.17h3e-3c0.734 2.387 1.363 5.019 1.882 7.806 0.525 2.801 0.932 5.729 1.216 8.699 1.456 15.211-0.138 31.861-5.423 39.657l-1.162 1.709 1.415 1.509 19.191 20.442 1.775 1.889 1.887-1.788c4.719-4.471 9.576-7.052 14.412-8.23 4.829-1.176 9.697-0.968 14.421 0.15zm87.042-25.817h-40.653v16.159h-14.15v-16.159h-40.697v-12.611h40.697v-25.735h14.15v25.735h40.653zm-62.074-44.344v25.735h-33.441v-12.581h19.298v-25.75h10.935v-9.138h-12.478v-12.585h12.478v-9.156h-20.978v21.671h-14.18v-34.254h49.311v56.058zm52.84-21.804v-21.667h-20.961v9.152h12.461v12.585h-12.461v9.14h10.936v25.748h19.261v12.581h-33.406v-25.735h-10.971v-56.058h49.324v34.254zm-24.965-55.448c0 2.581 0.495 4.547 1.55 5.882 1.076 1.367 2.44 2.002 4.141 2.002 1.649 0 3.028-0.635 4.113-1.984 1.075-1.322 1.597-3.242 1.597-5.769 0-2.876-0.522-4.945-1.573-6.27-1.032-1.365-2.428-2.035-4.116-2.035-1.219 0-2.297 0.331-3.182 1.068-0.929 0.75-1.566 1.665-1.961 2.752-0.402 1.132-0.569 2.601-0.569 4.354m-9.105-3.006c0-1.369 0.131-2.341 0.436-2.973 0.282-0.587 0.734-0.875 1.356-0.875 0.503 0 0.897 0.235 1.127 0.715 0.269 0.463 0.409 1.325 0.409 2.658 0 1.762-0.163 2.897-0.458 3.429-0.282 0.493-0.714 0.759-1.271 0.759-0.333 0-0.668-0.106-0.932-0.343-0.275-0.261-0.455-0.604-0.568-1.001-0.074-0.398-0.099-1.195-0.099-2.369m-10.2 1.203c-0.261-0.192-0.602-0.31-0.968-0.453-0.355-0.056-0.755-0.171-1.134-0.171-1.358 0-2.54 0.49-3.517 1.356-0.977 0.908-1.456 2.126-1.456 3.61 0 1.787 0.594 3.103 1.725 4.011 1.123 0.908 2.421 1.334 3.841 1.334 1.675 0 3.021-0.573 4.092-1.718 1.05-1.165 1.603-2.896 1.603-5.181 0-2.759-0.675-4.972-2.108-6.626-1.388-1.661-3.183-2.533-5.454-2.533-1.109 0-1.925 0.193-2.515 0.551-0.541 0.321-0.804 0.769-0.804 1.267 0 0.37 0.127 0.652 0.393 0.89 0.262 0.244 0.578 0.356 0.98 0.356 0.28 0 0.547-0.102 0.785-0.196 0.209-0.16 0.499-0.417 0.767-0.814 0.376-0.476 0.808-0.704 1.312-0.704 0.719 0 1.269 0.332 1.662 1.12 0.372 0.72 0.634 2.031 0.796 3.901m-18.956-6.06v1.267h0.602c0.481 0 0.87 0.084 1.107 0.24 0.257 0.179 0.38 0.551 0.38 1.144v8.692c0 0.843-0.123 1.367-0.355 1.566-0.226 0.167-0.891 0.281-1.968 0.281v1.271c2.135 0.05 3.798 0.529 5.002 1.347h1.263v-13.072c0-0.514 0.09-0.916 0.265-1.15 0.193-0.215 0.56-0.319 1.19-0.319h0.582v-1.267zm38.261 7.863c0 2.582 0.496 4.546 1.549 5.883 1.078 1.367 2.443 2.002 4.141 2.002 1.651 0 3.029-0.635 4.114-1.985 1.075-1.322 1.598-3.241 1.598-5.77 0-2.875-0.523-4.944-1.574-6.269-1.032-1.365-2.428-2.035-4.116-2.035-1.218 0-2.297 0.331-3.183 1.068-0.927 0.75-1.566 1.664-1.961 2.753-0.4 1.13-0.568 2.599-0.568 4.353m4.024 0c0-2.508 0.089-4.249 0.298-5.285 0.235-1.054 0.699-1.539 1.442-1.539 0.638 0 1.047 0.426 1.288 1.231 0.188 0.87 0.289 2.663 0.289 5.461 0 2.669-0.101 4.483-0.321 5.372-0.258 0.901-0.702 1.386-1.361 1.386-0.606 0-1.022-0.461-1.262-1.298-0.266-0.88-0.373-2.644-0.373-5.328m-12.917 1.48c0.688 0.356 1.419 0.545 2.248 0.545 1.293 0 2.441-0.392 3.421-1.233 0.974-0.844 1.452-2.054 1.452-3.638 0-1.713-0.582-3.032-1.741-3.978-1.106-0.91-2.404-1.35-3.768-1.35-1.612 0-2.955 0.576-4.061 1.738-1.106 1.199-1.661 2.871-1.661 5.027 0 1.622 0.262 3.179 0.841 4.641 0.555 1.472 1.451 2.627 2.725 3.415 1.232 0.858 2.606 1.238 4.019 1.238 0.925 0 1.72-0.16 2.352-0.505 0.603-0.346 0.938-0.754 0.938-1.323 0-0.324-0.146-0.6-0.405-0.903-0.269-0.279-0.613-0.413-1.008-0.413-0.499 0-1.026 0.357-1.546 1.047-0.331 0.479-0.792 0.73-1.329 0.73-0.681 0-1.227-0.43-1.654-1.278-0.405-0.809-0.698-2.057-0.823-3.76m-0.212-4.487c0-1.368 0.132-2.34 0.435-2.972 0.283-0.586 0.734-0.875 1.358-0.875 0.502 0 0.896 0.236 1.127 0.715 0.268 0.463 0.408 1.325 0.408 2.658 0 1.762-0.164 2.895-0.457 3.429-0.283 0.493-0.716 0.76-1.271 0.76-0.334 0-0.669-0.107-0.934-0.344-0.273-0.262-0.454-0.604-0.565-1.002-0.077-0.397-0.101-1.193-0.101-2.369m-10.199 1.204c-0.261-0.192-0.603-0.31-0.969-0.454-0.353-0.055-0.754-0.17-1.134-0.17-1.358 0-2.54 0.492-3.517 1.357-0.977 0.907-1.456 2.125-1.456 3.61 0 1.786 0.594 3.102 1.724 4.009 1.124 0.91 2.422 1.336 3.842 1.336 1.674 0 3.021-0.575 4.092-1.72 1.05-1.165 1.602-2.895 1.602-5.18 0-2.76-0.674-4.972-2.107-6.626-1.389-1.661-3.183-2.533-5.455-2.533-1.108 0-1.924 0.192-2.514 0.551-0.541 0.321-0.803 0.769-0.803 1.267 0 0.37 0.125 0.653 0.391 0.889 0.265 0.245 0.579 0.356 0.98 0.356 0.282 0 0.548-0.101 0.785-0.194 0.209-0.162 0.499-0.419 0.768-0.814 0.377-0.477 0.809-0.705 1.312-0.705 0.718 0 1.269 0.332 1.661 1.121 0.373 0.718 0.634 2.029 0.798 3.9m-3.031 4.385c0-1.322 0.139-2.243 0.398-2.822 0.233-0.548 0.644-0.795 1.269-0.795 0.566 0 0.994 0.212 1.263 0.711 0.265 0.464 0.384 1.326 0.384 2.568 0 1.713-0.119 2.864-0.447 3.44-0.286 0.611-0.704 0.942-1.284 0.942-0.327 0-0.61-0.143-0.89-0.359-0.272-0.21-0.459-0.534-0.554-0.967-0.094-0.442-0.139-1.367-0.139-2.718m-15.924-10.446v1.268h0.601c0.48 0 0.868 0.084 1.105 0.24 0.258 0.178 0.38 0.552 0.38 1.144v8.692c0 0.843-0.122 1.367-0.355 1.566-0.224 0.167-0.89 0.282-1.968 0.282v1.27c2.135 0.049 3.8 0.527 5.003 1.347h1.263v-13.07c0-0.516 0.09-0.917 0.265-1.151 0.192-0.216 0.562-0.32 1.19-0.32h0.583v-1.268zm42.282 7.864c0-2.507 0.091-4.249 0.3-5.284 0.232-1.055 0.698-1.54 1.441-1.54 0.638 0 1.046 0.426 1.287 1.231 0.189 0.87 0.289 2.664 0.289 5.461 0 2.669-0.1 4.483-0.32 5.373-0.259 0.901-0.701 1.386-1.361 1.386-0.606 0-1.022-0.461-1.263-1.3-0.266-0.879-0.373-2.644-0.373-5.327m-12.916 1.481c0.687 0.355 1.419 0.545 2.248 0.545 1.293 0 2.442-0.392 3.42-1.233 0.975-0.845 1.453-2.055 1.453-3.639 0-1.713-0.582-3.033-1.741-3.978-1.106-0.911-2.404-1.35-3.769-1.35-1.611 0-2.953 0.578-4.06 1.739-1.106 1.198-1.661 2.87-1.661 5.026 0 1.622 0.263 3.179 0.841 4.64 0.555 1.473 1.451 2.629 2.725 3.417 1.231 0.857 2.605 1.236 4.021 1.236 0.923 0 1.719-0.159 2.35-0.503 0.604-0.348 0.938-0.754 0.938-1.323 0-0.325-0.145-0.6-0.405-0.904-0.269-0.279-0.613-0.412-1.007-0.412-0.5 0-1.026 0.355-1.545 1.047-0.331 0.478-0.793 0.729-1.331 0.729-0.68 0-1.227-0.43-1.654-1.277-0.406-0.809-0.697-2.06-0.823-3.76m-13.443 1.1c0-1.321 0.14-2.242 0.399-2.821 0.234-0.548 0.644-0.795 1.269-0.795 0.567 0 0.994 0.212 1.263 0.711 0.266 0.464 0.385 1.326 0.385 2.568 0 1.714-0.119 2.865-0.447 3.439-0.286 0.612-0.705 0.944-1.284 0.944-0.329 0-0.61-0.144-0.891-0.36-0.272-0.209-0.46-0.534-0.554-0.967-0.095-0.442-0.14-1.368-0.14-2.719m120.18 27.483c-3.054 6.449-2.915 15.307-0.353 20.1 1.601 2.774 0.674 7.303 0.627 7.23 0 0.84 14.192-12.16-0.274-27.33m-7.472 14.869c-0.102-0.047-1.248 2.223 0.144-8.2 0.229-0.403-8.275-14.643 0.919-21.786-0.041-0.313 8.523 11.251 1.314 23.542zm18.578-15.863c4.93 16.633 3.688 13.044 2.639 12.645 0.123-0.099-4.02-10.057-5.377-10.707-1.404-0.851-10.297-5.324-11.855-17.048-0.297 0.172 7.729-3.857 14.593 15.11m-27.056-4.654c-0.068-0.04-1.524-0.645-0.263-8.078 0.423-0.274-7.901-15.485 2.921-19.102 0.122-0.283 7.911 12.566-0.685 21.297zm21.097-16.913c8.11 15.297 5.207 11.299 4.151 11.234 0.093-0.058-4.936-8.248-6.401-8.562-1.477-0.469-10.884-2.709-14.864-13.861-0.245 0.24 6.572-5.854 17.114 11.189m-28.143-1.31c-0.055 0-1.575-0.311-1.754-7.768 0.393-0.354-10.764-13.41-1.027-19.232 0.098-0.353 10.372 10.701 3.634 20.937zm17.886-20.932c11.067 13.616 7.384 10.257 6.358 10.335 0.059-0.06-6.512-7.247-8.005-7.247-1.62-0.16-11.129-0.619-17.498-10.681-0.177 0.326 5.218-7.251 19.145 7.593m-30.49 4.285c-0.039-0.039-1.712-0.109-2.484-7.24 0.396-0.195-12.534-12.068-2.381-18.03 0.139-0.408 11.458 9.552 5.199 19.512zm15.566-24.437c14.141 10.333 9.688 8.114 8.778 8.531 0.072-0.185-8.084-5.355-9.423-4.977-1.487 0.264-10.594 2.743-19.217-5.627-0.034 0.376 2.753-8.535 19.862 2.073m-29.195 11.377c-0.068 7e-3 -1.653 0.151-3.98-6.604 0.32-0.266-14.908-9.443-6.034-17.307 0.043-0.29 13.073 7.118 9.11 18.114zm10.103-27.194c15.889 7.052 11.158 5.81 10.315 6.392 0.057-0.136-9.028-3.399-10.172-2.819-1.467 0.634-9.832 4.949-19.927-1.597 0.037 0.352 1.049-8.772 19.784-1.976m-26.335 16.949c-0.047 0-1.715 0.556-5.282-5.784 0.216-0.211-16.642-6.845-9.065-15.977-0.023-0.197 14.099 4.611 12.279 16.288zm4.795-28.603c16.665 3.858 11.87 3.532 11.168 4.305 0-0.199-9.394-1.587-10.455-0.773-1.23 0.827-8.679 6.721-19.741 1.957 0.097 0.264-0.298-8.709 19.028-5.489m-22.82-7.631c16.775 1.075 12.077 1.342 11.521 2.317-0.034-0.018-9.345-0.123-10.292 0.993-1.075 1.025-7.539 8.028-19.133 4.708 0.114 0.167-1.386-8.363 17.904-8.018m-139.31 100.06c3.053 6.449 2.915 15.307 0.352 20.1-1.6 2.774-0.673 7.303-0.626 7.23 0 0.84-14.191-12.16 0.274-27.33m7.472 14.869c0.102-0.047 1.247 2.223-0.143-8.2-0.23-0.403 8.273-14.643-0.919-21.786 0.039-0.313-8.525 11.251-1.316 23.542zm-18.578-15.863c-4.93 16.633-3.688 13.044-2.638 12.645-0.123-0.099 4.019-10.057 5.376-10.707 1.404-0.851 10.297-5.324 11.855-17.048 0.297 0.172-7.729-3.857-14.593 15.11m27.055-4.654c0.068-0.04 1.525-0.645 0.264-8.078-0.423-0.274 7.901-15.485-2.921-19.102-0.122-0.283-7.91 12.566 0.685 21.297zm-21.096-16.913c-8.11 15.297-5.207 11.299-4.151 11.234-0.093-0.058 4.936-8.248 6.4-8.562 1.478-0.469 10.885-2.709 14.865-13.861 0.245 0.24-6.572-5.854-17.114 11.189m28.144-1.31c0.054 0 1.573-0.311 1.754-7.768-0.394-0.354 10.763-13.41 1.025-19.232-0.097-0.353-10.372 10.701-3.633 20.937zm-17.886-20.932c-11.068 13.616-7.385 10.257-6.359 10.335-0.059-0.06 6.512-7.247 8.005-7.247 1.621-0.16 11.129-0.619 17.498-10.681 0.177 0.326-5.218-7.251-19.144 7.593m30.489 4.285c0.039-0.039 1.712-0.109 2.485-7.24-0.397-0.195 12.533-12.068 2.38-18.03-0.139-0.408-11.457 9.552-5.199 19.512zm-15.566-24.437c-14.141 10.333-9.688 8.114-8.777 8.531-0.073-0.185 8.083-5.355 9.422-4.977 1.487 0.264 10.594 2.743 19.217-5.627 0.034 0.376-2.753-8.535-19.862 2.073m29.196 11.377c0.067 7e-3 1.652 0.151 3.98-6.604-0.321-0.266 14.908-9.443 6.034-17.307-0.044-0.29-13.073 7.118-9.111 18.114zm-10.104-27.194c-15.889 7.052-11.158 5.81-10.315 6.392-0.056-0.136 9.029-3.399 10.172-2.819 1.466 0.634 9.832 4.949 19.927-1.597-0.037 0.352-1.049-8.772-19.784-1.976m26.336 16.949c0.046 0 1.714 0.556 5.281-5.784-0.216-0.211 16.641-6.845 9.065-15.977 0.024-0.197-14.099 4.611-12.279 16.288zm-4.795-28.603c-16.666 3.858-11.87 3.532-11.169 4.305 0-0.199 9.394-1.587 10.456-0.773 1.229 0.827 8.678 6.721 19.74 1.957-0.097 0.264 0.297-8.709-19.027-5.489m22.819-7.631c-16.774 1.075-12.077 1.342-11.521 2.317 0.034-0.018 9.344-0.123 10.292 0.993 1.075 1.025 7.54 8.028 19.133 4.708-0.115 0.167 1.386-8.363-17.904-8.018m30.859 6.027 0.62-0.308 1.057-0.476 0.554-0.229c1.174-0.737 1.584-1.784 0-2.475-0.719-0.149-1.441 0.066-2.07 0.421l-0.473 0.284-0.412 0.23-0.42 0.31-0.41 0.3-0.431 0.254-0.434 0.253-0.458 0.217h-0.144l-0.459-0.217-0.434-0.253-0.429-0.254-0.41-0.3-0.421-0.31c-1.146-0.639-2.031-1.337-3.362-0.757-1.029 0.904-0.669 1.621 0.408 2.297l0.553 0.229 1.655 0.838-0.896 0.527-0.891 0.488-0.889 0.517-0.851 0.572-0.903 0.521-0.849 0.496-1.422 0.836c-0.121-0.221-0.252-0.445-0.396-0.672 0.039-0.125-14.478 2.779-14.634 14.437l-2.953 5.152c0.051 0.075 1.554 0.642 6.269-4.925-0.151-0.213 13.3-3.467 12.693-10.924l0.426-0.44 0.824-0.676 0.93-0.673 0.881-0.625 0.951-0.63 0.986-0.575 0.972-0.574 1.044-0.527 1.048-0.595 0.653-0.344 0.608 0.344 1.05 0.595 1.044 0.527 0.971 0.574 0.986 0.575 0.95 0.63 0.883 0.625 0.929 0.673 1.26 0.992c-0.765 7.545 12.834 10.834 12.682 11.048 4.717 5.567 6.22 5 6.269 4.925l-2.952-5.152c-0.156-11.658-14.673-14.562-14.633-14.437-0.142 0.223-0.272 0.443-0.39 0.659l-1.43-0.823-0.848-0.496-0.904-0.521-0.85-0.572-0.89-0.517-0.89-0.488zm66.684 239.49-3.116 2.077 10.573 15.825 3.138-2.091zm23.89 5.491 3.011-2.495-16.886-10.698-2.733 2.285 7.407 18.532 3.124-2.592-6.177-13.63zm13.465-18.591-6.292 6.952-2.99-2.709 5.75-6.378-2.422-2.19-5.778 6.34-3.609-3.284 6.582-7.271-2.54-2.31-9.101 10.018 14.108 12.783 8.792-9.704zm6.292-8.365-4.258-2.817 2.249-3.418c0.452-0.664 0.882-1.11 1.273-1.358 0.69-0.376 1.507-0.303 2.389 0.288 0.95 0.66 1.42 1.39 1.36 2.176-0.037 0.452-0.269 1.002-0.694 1.652zm6.685-4.959c0.12-0.726 0.031-1.446-0.183-2.151-0.172-0.587-0.444-1.146-0.822-1.636-0.354-0.517-0.846-0.959-1.482-1.417-0.734-0.478-1.611-0.779-2.558-0.925-0.969-0.12-1.897 0.146-2.746 0.77 0.175-0.905 0.105-1.657-0.254-2.314-0.375-0.645-1.088-1.34-2.189-2.083l-1.047-0.698c-0.749-0.485-1.203-0.845-1.438-1.083-0.352-0.352-0.511-0.73-0.493-1.161l-0.415-0.269-2.32 3.466c0.284 0.327 0.519 0.601 0.72 0.763 0.371 0.383 0.814 0.735 1.261 1.041l1.464 1.021c1.005 0.675 1.576 1.271 1.701 1.811 0.092 0.576-0.125 1.278-0.696 2.166l-2.07 3.082-6.209-4.144-2.036 3.074 15.817 10.55 4.815-7.22c0.648-1.044 1.065-1.897 1.18-2.643m-5.184-16.579c-0.754-0.46-1.224-0.945-1.466-1.444-0.447-0.916-0.345-2.048 0.299-3.408 0.374-0.814 0.787-1.438 1.222-1.879 0.818-0.825 1.699-0.984 2.681-0.509 0.548 0.24 0.889 0.684 0.968 1.321 0.076 0.631 0 1.513-0.253 2.667l-0.436 1.957c-0.397 1.921-0.509 3.318-0.355 4.213 0.277 1.48 1.265 2.594 2.934 3.398 1.547 0.708 3.087 0.762 4.604 0.17 1.54-0.611 2.796-1.958 3.768-4.017 0.825-1.777 1.044-3.471 0.651-5.175-0.376-1.674-1.462-2.96-3.25-3.882l-1.572 3.278c1.011 0.543 1.543 1.345 1.585 2.365 0.039 0.658-0.135 1.415-0.538 2.221-0.412 0.89-0.941 1.538-1.552 1.887-0.637 0.363-1.288 0.389-1.934 0.089-0.619-0.319-0.941-0.773-1.013-1.441-0.034-0.433 0.072-1.281 0.318-2.498l0.629-3.223c0.282-1.378 0.303-2.532 0.089-3.416-0.36-1.355-1.284-2.378-2.822-3.12-1.576-0.72-3.179-0.761-4.731-0.091-1.584 0.673-2.884 2.062-3.869 4.166-1.007 2.153-1.304 4.113-0.856 5.82 0.441 1.712 1.566 2.997 3.352 3.829zm1.64-19.335-1.248 3.563 17.983 6.263 1.248-3.544zm22.993-12.405-3.277-0.789-1.264 5.301-15.219-3.685-0.908 3.693 15.224 3.678-1.266 5.293 3.254 0.814zm1.908-15.814 0.411-4.263-12.404 4.871-7.117-0.726-0.368 3.766 7.11 0.692 11.192 7.428 0.425-4.434-7.867-4.571zm-146.63 119.3 4.632 0.113-2.468 7.456zm-0.05 11.849 4.286 0.113 6.864-18.868-4.105-0.094-1.28 3.842-6.686-0.131-1.123-3.928-3.978-0.102zm16.456-0.203 3.74-0.42-1.824-15.535 8.952-1.052-0.426-3.411-12.708 1.514zm27.376-4.8 3.641-1.227-3.716-11.082c-0.415-1.236-0.598-2.19-0.494-2.858 0.094-1.172 0.862-1.991 2.302-2.49 1.457-0.477 2.545-0.289 3.339 0.585 0.464 0.47 0.921 1.344 1.336 2.573l3.728 11.09 3.667-1.237-3.747-11.079c-0.657-1.932-1.44-3.313-2.369-4.192-1.694-1.579-4.046-1.897-6.998-0.9-2.977 0.997-4.677 2.67-5.071 4.975-0.219 1.244 0 2.842 0.676 4.773zm20.533-7.556 3.503-1.811 0.256-15.05 6.123 11.711 3.132-1.61-8.796-16.894-3.357 1.777-0.305 15.352-6.219-11.975-3.135 1.655zm-89.053 7.501c1.161 1.809 2.863 2.897 5.095 3.313 2.954 0.503 5.301-0.136 7.062-1.964 0.945-0.983 1.556-2.11 1.828-3.275l-3.728-0.655c-0.389 0.856-0.838 1.469-1.261 1.871-0.832 0.697-1.879 0.916-3.178 0.697-1.318-0.232-2.263-0.995-2.816-2.27-0.572-1.29-0.677-3.005-0.298-5.079 0.376-2.11 1.07-3.621 2.046-4.516 0.99-0.875 2.13-1.221 3.349-1.028 1.287 0.237 2.194 0.882 2.715 1.887 0.25 0.566 0.446 1.336 0.509 2.357l3.706 0.647c0.057-2.096-0.478-3.886-1.538-5.421-1.083-1.519-2.66-2.459-4.713-2.814-2.537-0.441-4.68 0.05-6.453 1.53-1.753 1.474-2.915 3.714-3.444 6.736-0.58 3.266-0.223 5.92 1.119 7.984m-110.52-117.55 3.362-0.292-0.446-5.395 15.624-1.237-0.298-3.824-15.626 1.252-0.431-5.415-3.351 0.271zm13.528 7.791 1.039 4.497-7.825-0.546zm-11.487 2.853 0.971 4.168 19.943 2.075-0.91-4.017-4.062-0.308-1.505-6.507 3.565-2.077-0.895-3.845zm23.279 12.345-1.243-3.565-17.959 6.256 1.227 3.542zm-8.323 18.905c-0.585-0.265-1.066-0.789-1.425-1.582l-1.452-3.08 5.061-2.373 1.449 3.117c0.376 0.749 0.454 1.49 0.237 2.093-0.2 0.639-0.756 1.151-1.662 1.574-0.877 0.404-1.613 0.493-2.208 0.251m7.423-0.282c0.389-1.374 0.151-2.94-0.658-4.73l-1.613-3.393 6.207-2.92-1.598-3.399-17.231 8.052 3.289 7.055c0.772 1.621 1.829 2.707 3.15 3.262 1.344 0.53 2.946 0.395 4.826-0.488 1.999-0.96 3.228-2.116 3.628-3.439m4.201 20.827-5.149-7.869 3.349-2.2 4.729 7.214 2.759-1.819-4.739-7.204 4.113-2.675 5.376 8.219 2.864-1.9-7.434-11.294-15.879 10.414 7.17 10.972zm18.038-2.544-2.364-2.913-14.757 12.019 2.37 2.921zm4.814 31.315 4.16 3.525 12.311-14.482-2.662-2.269-8.344 9.793c-0.238 0.285-0.577 0.703-0.987 1.217-0.431 0.475-0.749 0.882-1.005 1.158l7.729-14.391-2.828-2.391-12.955 9.96c0.247-0.3 0.571-0.697 1.028-1.185 0.439-0.515 0.764-0.916 1.008-1.177l8.328-9.806-2.646-2.255-12.328 14.475 4.182 3.547 12.204-9.237zm23.249 11.622-8.025-4.86 2.087-3.456 7.369 4.477 1.714-2.811-7.38-4.492 2.562-4.184 8.379 5.105 1.779-2.925-11.56-7.009-9.886 16.253 11.229 6.794zm9.255 4.552 4.792-11.474 3.255 1.344c1.639 0.703 2.427 2.036 2.357 4.014-0.032 1.094-0.306 2.276-0.862 3.576-0.731 1.791-1.571 3.075-2.521 3.793-0.924 0.73-2.205 0.767-3.784 0.086zm5.306 5.348c1.342 0.083 2.595-0.251 3.761-1.018 0.969-0.652 1.759-1.428 2.391-2.37 0.65-0.932 1.164-1.83 1.537-2.772 0.969-2.325 1.358-4.494 1.149-6.478-0.305-2.706-1.723-4.554-4.244-5.63l-7.22-3.004-7.341 17.565 7.206 2.997c1.049 0.436 1.968 0.652 2.761 0.71m18.359-13.505-3.591-1.064-5.367 18.269 3.602 1.052z" fill="#a4262c"/>
    </g>
   </g>
  </g>
 </g>
</svg>
